<svg width="736" height="497" viewBox="0 0 736 497" fill="none" xmlns="http://www.w3.org/2000/svg">
<path d="M735.2 25.8C734.4 23.4 732 21.8 729.6 21.8L593.6 0.999974C590.4 0.199974 588 1.79997 585.6 4.19997C584 6.59997 583.2 9.79997 584.8 12.2L606.4 56.2L430.4 154.6C420.8 160.2 409.6 161 398.4 157.8C388 154.6 379.2 147.4 373.6 137L340.8 72.2C328.8 48.2 308 30.6 282.4 22.6C256.8 14.6 230.4 17 206.4 29L19.1997 128.2C3.99969 136.2 -3.20031 153.8 1.59969 170.6C4.79969 181 11.9997 189.8 22.3997 194.6C32.7997 198.6 43.9997 198.6 53.5997 193L228.8 97C238.4 91.4 249.6 90.6 260 93.8C270.4 97 279.2 104.2 284 114.6L316 178.6C328 202.6 348.8 221 375.2 229C384.8 232.2 394.4 233.8 404.8 233.8C420.8 233.8 437.6 229.8 452 221.8L636.8 119.4L653.6 153C655.2 155.4 657.6 157 660.8 157.8C663.2 157.8 666.4 156.2 668 153.8L735.2 34.6C736 31.4 736 28.2 735.2 25.8ZM661.6 132.2L648 104.2C647.2 102.6 645.6 101 643.2 100.2C640.8 99.4 639.2 99.4 636.8 101L444.8 207.4C424.8 218.6 402.4 221 380.8 213.8C359.2 207.4 341.6 192.2 331.2 171.4L299.2 107.4C292 93.8 280 83.4 265.6 78.6C260 77 254.4 76.2 248.8 76.2C239.2 76.2 230.4 78.6 221.6 83.4L46.3997 179.4C40.7997 182.6 34.3997 182.6 28.7997 180.2C23.1997 177.8 18.3997 173 16.7997 166.6C14.3997 157 18.3997 147.4 27.1997 142.6L216 42.6C236 32.2 258.4 30.6 279.2 37C300.8 44.2 317.6 58.6 328 78.6L360.8 143.4C368 157.8 380 167.4 395.2 172.2C410.4 177 425.6 175.4 439.2 167.4L621.6 65.8C625.6 63.4 626.4 59.4 624.8 55.4L606.4 18.6L715.2 35.4L661.6 132.2Z" fill="white"/>
<path d="M104 217H8C3.2 217 0 220.2 0 225V489C0 493.8 3.2 497 8 497H104C108.8 497 112 493.8 112 489V225C112 220.2 108.8 217 104 217ZM96 481H16V233H96V481Z" fill="white"/>
<path d="M456 257H360C355.2 257 352 260.2 352 265V489C352 493.8 355.2 497 360 497H456C460.8 497 464 493.8 464 489V265C464 260.2 460.8 257 456 257ZM448 481H368V273H448V481Z" fill="white"/>
<path d="M280 137H184C179.2 137 176 140.2 176 145V489C176 493.8 179.2 497 184 497H280C284.8 497 288 493.8 288 489V145C288 140.2 284.8 137 280 137ZM272 481H192V153H272V481Z" fill="white"/>
<path d="M632 201H536C531.2 201 528 204.2 528 209V489C528 493.8 531.2 497 536 497H632C636.8 497 640 493.8 640 489V209C640 204.2 636.8 201 632 201ZM624 481H544V217H624V481Z" fill="white"/>
</svg>
