<svg width="592" height="736" viewBox="0 0 592 736" fill="none" xmlns="http://www.w3.org/2000/svg">
<path d="M552 0H40C17.6 0 0 17.6 0 40V576C0 598.4 17.6 616 40 616H240V712C240 725.6 250.4 736 264 736H328C341.6 736 352 725.6 352 712V616H552C574.4 616 592 598.4 592 576V40C592 17.6 574.4 0 552 0ZM336 712C336 716.8 332.8 720 328 720H264C259.2 720 256 716.8 256 712V560C256 555.2 259.2 552 264 552H328C332.8 552 336 555.2 336 560V712ZM473.6 219.2L464 201.6L532 208.8L504 272.8L496 258.4C495.2 256.8 492.8 255.2 491.2 254.4C488.8 253.6 487.2 254.4 484.8 255.2L424.8 292.8L288 380L244.8 313.6C244 312 241.6 310.4 240 310.4C237.6 309.6 236 310.4 233.6 312L171.2 355.2C168.8 345.6 168 336.8 168 328C168 325.6 168 323.2 168 320.8L251.2 264.8L294.4 331.2C296.8 335.2 301.6 336 305.6 333.6L416 264L470.4 229.6C474.4 227.2 476 222.4 473.6 219.2ZM424 328C424 398.4 366.4 456 296 456C241.6 456 193.6 422.4 175.2 371.2L235.2 329.6L278.4 396C280 398.4 282.4 400 284.8 400C286.4 400 288 400 288.8 398.4L422.4 313.6C424 318.4 424 323.2 424 328ZM171.2 298.4C184.8 241.6 236 200 296 200C338.4 200 376.8 220 400.8 255.2L304 315.2L260.8 248.8C260 247.2 257.6 245.6 256 245.6C253.6 244.8 252 245.6 249.6 246.4L171.2 298.4ZM414.4 245.6C388 206.4 344 184 296 184C221.6 184 159.2 241.6 152.8 315.2C152 318.4 152 323.2 152 328C152 342.4 154.4 356.8 158.4 370.4C176.8 430.4 232 472 296 472C375.2 472 440 407.2 440 328C440 320 439.2 312.8 437.6 304.8L459.2 291.2C461.6 303.2 463.2 316 463.2 328.8C463.2 421.6 388 496.8 295.2 496.8C226.4 496.8 163.2 453.6 138.4 388.8C132.8 373.6 128.8 358.4 128 342.4C128 336.8 128 332 128 328C128 235.2 203.2 160 296 160C352 160 403.2 187.2 435.2 233.6L414.4 245.6ZM320 510.4V536H272V510.4C280 511.2 288 512 296 512C304 512 312 511.2 320 510.4ZM576 576C576 589.6 565.6 600 552 600H352V560C352 549.6 345.6 540.8 336 537.6V508C418.4 489.6 480 416 480 328C480 312 477.6 296.8 473.6 281.6L485.6 273.6L496.8 294.4C498.4 296.8 500.8 298.4 504 298.4C507.2 298.4 509.6 296.8 511.2 293.6L550.4 204.8C551.2 202.4 551.2 200 549.6 197.6C548 195.2 546.4 193.6 543.2 193.6L450.4 184C447.2 184 444.8 184.8 443.2 187.2C441.6 189.6 441.6 192.8 443.2 195.2L456.8 219.2L449.6 224C414.4 173.6 357.6 144 296 144C194.4 144 112 226.4 112 328C112 331.2 112 335.2 112 338.4L43.2 384.8C40 387.2 38.4 392 40.8 395.2L64.8 436C65.6 437.6 68 439.2 69.6 440C70.4 440 70.4 440 71.2 440C72.8 440 74.4 439.2 76 438.4L128 403.2C152 456 200 495.2 256 507.2V537.6C246.4 540.8 240 549.6 240 560V600H40C26.4 600 16 589.6 16 576V112H576V576ZM122.4 388L74.4 420.8L58.4 393.6L113.6 356C116 367.2 118.4 377.6 122.4 388ZM576 96H16V40C16 26.4 26.4 16 40 16H552C565.6 16 576 26.4 576 40V96Z" fill="white"/>
<path d="M528 72C536.837 72 544 64.8366 544 56C544 47.1634 536.837 40 528 40C519.163 40 512 47.1634 512 56C512 64.8366 519.163 72 528 72Z" fill="white"/>
<path d="M480 72C488.837 72 496 64.8366 496 56C496 47.1634 488.837 40 480 40C471.163 40 464 47.1634 464 56C464 64.8366 471.163 72 480 72Z" fill="white"/>
<path d="M432 72C440.837 72 448 64.8366 448 56C448 47.1634 440.837 40 432 40C423.163 40 416 47.1634 416 56C416 64.8366 423.163 72 432 72Z" fill="white"/>
</svg>
