<svg width="736" height="736" viewBox="0 0 736 736" fill="none" xmlns="http://www.w3.org/2000/svg">
<path d="M704 0H224C206.4 0 192 14.4 192 32V64H160C142.4 64 128 78.4 128 96V128H96C78.4 128 64 142.4 64 160V192H32C14.4 192 0 206.4 0 224V704C0 721.6 14.4 736 32 736H512C529.6 736 544 721.6 544 704V672H576C593.6 672 608 657.6 608 640V608H640C657.6 608 672 593.6 672 576V544H704C721.6 544 736 529.6 736 512V32C736 14.4 721.6 0 704 0ZM208 32C208 23.2 215.2 16 224 16H704C712.8 16 720 23.2 720 32V80H667.2C661.6 70.4 651.2 64 640 64H632H584H208V32ZM144 96C144 87.2 151.2 80 160 80H640C648.8 80 656 87.2 656 96V144H603.2C597.6 134.4 587.2 128 576 128H568H520H144V96ZM80 160C80 151.2 87.2 144 96 144H576C584.8 144 592 151.2 592 160V208H539.2C533.6 198.4 523.2 192 512 192H504H456H80V160ZM32 208H512C520.8 208 528 215.2 528 224V272H16V224C16 215.2 23.2 208 32 208ZM528 704C528 712.8 520.8 720 512 720H32C23.2 720 16 712.8 16 704V288H528V704ZM592 640C592 648.8 584.8 656 576 656H544V224H592V640ZM656 576C656 584.8 648.8 592 640 592H608V160H656V576ZM704 528H672V96H720V512C720 520.8 712.8 528 704 528Z" fill="white"/>
<path d="M392 256C400.837 256 408 248.837 408 240C408 231.163 400.837 224 392 224C383.163 224 376 231.163 376 240C376 248.837 383.163 256 392 256Z" fill="white"/>
<path d="M440 256C448.837 256 456 248.837 456 240C456 231.163 448.837 224 440 224C431.163 224 424 231.163 424 240C424 248.837 431.163 256 440 256Z" fill="white"/>
<path d="M488 256C496.837 256 504 248.837 504 240C504 231.163 496.837 224 488 224C479.163 224 472 231.163 472 240C472 248.837 479.163 256 488 256Z" fill="white"/>
<path d="M456 192C464.837 192 472 184.837 472 176C472 167.163 464.837 160 456 160C447.163 160 440 167.163 440 176C440 184.837 447.163 192 456 192Z" fill="white"/>
<path d="M504 192C512.837 192 520 184.837 520 176C520 167.163 512.837 160 504 160C495.163 160 488 167.163 488 176C488 184.837 495.163 192 504 192Z" fill="white"/>
<path d="M552 192C560.837 192 568 184.837 568 176C568 167.163 560.837 160 552 160C543.163 160 536 167.163 536 176C536 184.837 543.163 192 552 192Z" fill="white"/>
<path d="M520 128C528.837 128 536 120.837 536 112C536 103.163 528.837 96 520 96C511.163 96 504 103.163 504 112C504 120.837 511.163 128 520 128Z" fill="white"/>
<path d="M568 128C576.837 128 584 120.837 584 112C584 103.163 576.837 96 568 96C559.163 96 552 103.163 552 112C552 120.837 559.163 128 568 128Z" fill="white"/>
<path d="M616 128C624.837 128 632 120.837 632 112C632 103.163 624.837 96 616 96C607.163 96 600 103.163 600 112C600 120.837 607.163 128 616 128Z" fill="white"/>
<path d="M584 64C592.837 64 600 56.8366 600 48C600 39.1634 592.837 32 584 32C575.163 32 568 39.1634 568 48C568 56.8366 575.163 64 584 64Z" fill="white"/>
<path d="M632 64C640.837 64 648 56.8366 648 48C648 39.1634 640.837 32 632 32C623.163 32 616 39.1634 616 48C616 56.8366 623.163 64 632 64Z" fill="white"/>
<path d="M680 64C688.837 64 696 56.8366 696 48C696 39.1634 688.837 32 680 32C671.163 32 664 39.1634 664 48C664 56.8366 671.163 64 680 64Z" fill="white"/>
<path d="M64 408H480C493.6 408 504 397.6 504 384V336C504 322.4 493.6 312 480 312H64C50.4 312 40 322.4 40 336V384C40 397.6 50.4 408 64 408ZM56 336C56 331.2 59.2 328 64 328H480C484.8 328 488 331.2 488 336V384C488 388.8 484.8 392 480 392H64C59.2 392 56 388.8 56 384V336Z" fill="white"/>
<path d="M256 520H64C50.4 520 40 530.4 40 544V672C40 685.6 50.4 696 64 696H256C269.6 696 280 685.6 280 672V544C280 530.4 269.6 520 256 520ZM264 672C264 676.8 260.8 680 256 680H64C59.2 680 56 676.8 56 672V544C56 539.2 59.2 536 64 536H256C260.8 536 264 539.2 264 544V672Z" fill="white"/>
<path d="M504 480H56C51.2 480 48 483.2 48 488C48 492.8 51.2 496 56 496H504C508.8 496 512 492.8 512 488C512 483.2 508.8 480 504 480Z" fill="white"/>
<path d="M504 440H56C51.2 440 48 443.2 48 448C48 452.8 51.2 456 56 456H504C508.8 456 512 452.8 512 448C512 443.2 508.8 440 504 440Z" fill="white"/>
<path d="M496 520H312C307.2 520 304 523.2 304 528C304 532.8 307.2 536 312 536H496C500.8 536 504 532.8 504 528C504 523.2 500.8 520 496 520Z" fill="white"/>
<path d="M496 560H312C307.2 560 304 563.2 304 568C304 572.8 307.2 576 312 576H496C500.8 576 504 572.8 504 568C504 563.2 500.8 560 496 560Z" fill="white"/>
<path d="M496 600H312C307.2 600 304 603.2 304 608C304 612.8 307.2 616 312 616H496C500.8 616 504 612.8 504 608C504 603.2 500.8 600 496 600Z" fill="white"/>
<path d="M496 640H312C307.2 640 304 643.2 304 648C304 652.8 307.2 656 312 656H496C500.8 656 504 652.8 504 648C504 643.2 500.8 640 496 640Z" fill="white"/>
<path d="M496 680H312C307.2 680 304 683.2 304 688C304 692.8 307.2 696 312 696H496C500.8 696 504 692.8 504 688C504 683.2 500.8 680 496 680Z" fill="white"/>
</svg>
