<svg width="578" height="737" viewBox="0 0 578 737" fill="none" xmlns="http://www.w3.org/2000/svg">
<path d="M576.2 524.8C574.6 521.6 572.2 520 569 520H537V160C537 137.6 519.4 120 497 120H273C271.4 120 270.6 120 269.8 120.8L175.4 3.2002C172.2 -0.799805 165.8 -0.799805 162.6 3.2002L2.59987 203.2C0.999867 205.6 0.199872 208.8 1.79987 212C3.39987 214.4 5.79987 216.8 8.99987 216.8H40.9999V576.8C40.9999 599.2 58.5999 616.8 80.9999 616.8H305C306.6 616.8 307.4 616.8 308.2 616L402.6 733.6C404.2 735.2 406.6 736.8 409 736.8C411.4 736.8 413.8 736 415.4 733.6L575.4 533.6C577 530.4 577.8 527.2 576.2 524.8ZM497 136C510.6 136 521 146.4 521 160V200H333L281.8 136H497ZM169 20.8002L312.2 200H249C244.2 200 241 203.2 241 208V400C241 404.8 237.8 408 233 408H105C100.2 408 96.9999 404.8 96.9999 400V208C96.9999 203.2 93.7999 200 88.9999 200H25.7999L169 20.8002ZM80.9999 600C67.3999 600 56.9999 589.6 56.9999 576V216H80.9999V400C80.9999 413.6 91.3999 424 105 424H233C246.6 424 257 413.6 257 400V216H329H521V520H497V336C497 322.4 486.6 312 473 312H345C331.4 312 321 322.4 321 336V520H249C245.8 520 243.4 521.6 241.8 524.8C240.2 527.2 241 531.2 242.6 533.6L296.2 600.8H80.9999V600ZM409 715.2L265.8 536H329C333.8 536 337 532.8 337 528V336C337 331.2 340.2 328 345 328H473C477.8 328 481 331.2 481 336V528C481 532.8 484.2 536 489 536H552.2L409 715.2Z" fill="white"/>
<path d="M473 184C481.837 184 489 176.837 489 168C489 159.163 481.837 152 473 152C464.163 152 457 159.163 457 168C457 176.837 464.163 184 473 184Z" fill="white"/>
<path d="M425 184C433.837 184 441 176.837 441 168C441 159.163 433.837 152 425 152C416.163 152 409 159.163 409 168C409 176.837 416.163 184 425 184Z" fill="white"/>
<path d="M377 184C385.837 184 393 176.837 393 168C393 159.163 385.837 152 377 152C368.163 152 361 159.163 361 168C361 176.837 368.163 184 377 184Z" fill="white"/>
</svg>
