<svg width="800" height="800" viewBox="0 0 800 800" fill="none" xmlns="http://www.w3.org/2000/svg">
<path d="M631.2 323.2C632 322.4 632 320.8 632 320V72C632 49.6 614.4 32 592 32H112C89.6 32 72 49.6 72 72V552C72 574.4 89.6 592 112 592H240C240.8 592 241.6 592 242.4 591.2C273.6 693.6 368 768 480 768C616.8 768 728 656.8 728 520C728 440 690.4 368.8 631.2 323.2ZM112 48H592C605.6 48 616 58.4 616 72V128H88V72C88 58.4 98.4 48 112 48ZM112 576C98.4 576 88 565.6 88 552V144H616V312C589.6 295.2 560 282.4 528 276V240C528 236.8 526.4 234.4 524 232.8C521.6 231.2 518.4 231.2 516 232.8L412 296.8C409.6 298.4 408 301.6 408 304C408 306.4 409.6 309.6 412 311.2L516 375.2C518.4 376.8 521.6 376.8 524 375.2C526.4 373.6 528 371.2 528 368V334.4C612 356 672 432 672 520C672 625.6 585.6 712 480 712C374.4 712 288 625.6 288 520C288 452.8 324 389.6 381.6 355.2C384.8 352.8 386.4 348.8 384.8 344.8L368.8 308C368 305.6 366.4 304 364 304C361.6 303.2 359.2 303.2 357.6 304.8C280 348 232 431.2 232 520C232 539.2 234.4 557.6 238.4 576H112ZM480 752C352 752 248 648 248 520C248 440 289.6 364.8 357.6 323.2L367.2 345.6C308.8 383.2 272 449.6 272 520C272 634.4 365.6 728 480 728C594.4 728 688 634.4 688 520C688 421.6 618.4 336 521.6 316C519.2 315.2 516.8 316 515.2 317.6C513.6 319.2 512 321.6 512 324V353.6L431.2 304L512 254.4V283.2C512 287.2 515.2 290.4 518.4 291.2C630.4 310.4 712 406.4 712 520C712 648 608 752 480 752Z" fill="white"/>
<path d="M480 552C495.2 552 507.2 541.6 511.2 528H632C636.8 528 640 524.8 640 520C640 515.2 636.8 512 632 512H511.2C508 500.8 499.2 492 488 488.8V416C488 411.2 484.8 408 480 408C475.2 408 472 411.2 472 416V488.8C458.4 492 448 504.8 448 520C448 537.6 462.4 552 480 552ZM480 504C488.8 504 496 511.2 496 520C496 528.8 488.8 536 480 536C471.2 536 464 528.8 464 520C464 511.2 471.2 504 480 504Z" fill="white"/>
<path d="M568 104C576.837 104 584 96.8366 584 88C584 79.1634 576.837 72 568 72C559.163 72 552 79.1634 552 88C552 96.8366 559.163 104 568 104Z" fill="white"/>
<path d="M520 104C528.837 104 536 96.8366 536 88C536 79.1634 528.837 72 520 72C511.163 72 504 79.1634 504 88C504 96.8366 511.163 104 520 104Z" fill="white"/>
<path d="M472 104C480.837 104 488 96.8366 488 88C488 79.1634 480.837 72 472 72C463.163 72 456 79.1634 456 88C456 96.8366 463.163 104 472 104Z" fill="white"/>
<path d="M184 168H128C123.2 168 120 171.2 120 176C120 180.8 123.2 184 128 184H184C188.8 184 192 180.8 192 176C192 171.2 188.8 168 184 168Z" fill="white"/>
<path d="M184 200H128C123.2 200 120 203.2 120 208C120 212.8 123.2 216 128 216H184C188.8 216 192 212.8 192 208C192 203.2 188.8 200 184 200Z" fill="white"/>
<path d="M184 232H128C123.2 232 120 235.2 120 240C120 244.8 123.2 248 128 248H184C188.8 248 192 244.8 192 240C192 235.2 188.8 232 184 232Z" fill="white"/>
</svg>
