<svg width="584" height="406" viewBox="0 0 584 406" fill="none" xmlns="http://www.w3.org/2000/svg">
<path d="M96.8006 193.867H126.851C121.884 197.25 117.151 201.05 112.817 205.384C94.634 223.567 84.634 247.817 84.634 273.667C84.634 326.85 127.917 370.134 181.101 370.134H220.734V396.584C220.734 400.35 223.267 403.65 226.917 404.634C230.551 405.634 234.401 404.017 236.301 400.75L267.867 346.067L299.434 400.9C300.951 403.534 303.734 405.084 306.667 405.084C307.384 405.084 308.101 405 308.817 404.8C312.467 403.834 315.001 400.534 315.001 396.75V370.134H575.334C579.934 370.134 583.667 366.4 583.667 361.8V334.984C583.667 333.25 583.017 331.734 582.117 330.417C582.017 330.267 582.051 330.067 581.951 329.917C569.534 313.7 562.967 294.25 562.967 273.667C562.967 253.084 569.534 233.634 581.951 217.417C582.067 217.267 582.017 217.067 582.117 216.917C583.017 215.584 583.667 214.067 583.667 212.35V185.534C583.667 180.934 579.934 177.2 575.334 177.2H499.367V158.717C499.367 158.55 499.284 158.4 499.267 158.234C499.251 157.884 499.134 157.6 499.067 157.267C498.867 156.15 498.467 155.167 497.884 154.25C497.767 154.067 497.784 153.834 497.651 153.65C485.234 137.434 478.667 117.984 478.667 97.4002C478.667 76.8169 485.234 57.3669 497.651 41.1502C497.784 40.9669 497.767 40.7336 497.884 40.5503C498.484 39.6336 498.867 38.6502 499.067 37.5336C499.134 37.2002 499.251 36.9003 499.267 36.5669C499.284 36.4003 499.367 36.2502 499.367 36.0836V9.26693C499.367 4.66693 495.634 0.933594 491.034 0.933594H96.8006C70.9507 0.933594 46.7006 10.9503 28.5173 29.1169C10.334 47.2836 0.333984 71.5336 0.333984 97.4002C0.333984 150.584 43.6173 193.867 96.8006 193.867ZM314.967 282H546.934C548.117 297.834 552.551 312.934 560.184 326.65H314.967V282ZM546.951 265.334H306.634H229.067H169.601C165.001 265.334 161.267 269.067 161.267 273.667C161.267 278.267 165.001 282 169.601 282H220.734V326.65H184.001C154.784 326.65 131.017 302.884 131.017 273.667C131.017 259.484 136.517 246.184 146.467 236.217C156.617 226.2 169.951 220.684 183.984 220.684H560.167C552.551 234.4 548.134 249.484 546.951 265.334ZM298.301 365.517L275.051 325.267C273.551 322.7 270.817 321.117 267.851 321.117C264.884 321.117 262.151 322.684 260.651 325.25L237.384 365.484V361.8V334.984V282H298.284V334.984V361.8L298.301 365.517ZM314.967 353.467V343.317H567.001V353.467H314.967ZM567.001 204.017H184.017C165.567 204.017 148.084 211.234 134.751 224.4C121.601 237.55 114.367 255.034 114.367 273.667C114.367 312.067 145.617 343.317 184.017 343.317H220.751V353.467H181.117C137.117 353.467 101.317 317.667 101.317 273.667C101.317 252.267 109.601 232.217 124.617 217.167C139.651 202.134 159.701 193.867 181.117 193.867H491.051H567.001V204.017ZM462.517 89.0669H85.3006C80.7006 89.0669 76.9673 92.8002 76.9673 97.4002C76.9673 102 80.7006 105.734 85.3006 105.734H462.517C463.701 121.55 468.001 136.684 475.617 150.384H99.7173C70.5007 150.384 46.734 126.617 46.734 97.4002C46.734 83.2169 52.234 69.9169 62.184 59.9502C72.334 49.9336 85.6673 44.4169 99.7006 44.4169H475.601C468.001 58.1002 463.701 73.2502 462.517 89.0669ZM40.3006 40.9003C55.334 25.8669 75.384 17.6003 96.8006 17.6003H482.701V27.7502H99.7173C81.2673 27.7502 63.784 34.9669 50.4506 48.1336C37.3006 61.2836 30.0673 78.7669 30.0673 97.4002C30.0673 135.8 61.3173 167.05 99.7173 167.05H482.701V177.2H181.101H96.8006C52.8006 177.2 17.0007 141.4 17.0007 97.4002C17.0007 75.9836 25.284 55.9336 40.3006 40.9003Z" fill="white"/>
</svg>
