<svg width="736" height="641" viewBox="0 0 736 641" fill="none" xmlns="http://www.w3.org/2000/svg">
<path d="M568 152H376V8C376 3.2 372.8 0 368 0H256C252 0 248.8 3.2 248 7.2L241.6 48C220.8 53.6 201.6 62.4 182.4 72.8L149.6 48C146.4 45.6 141.6 45.6 139.2 48.8L48 139.2C44.8 142.4 44.8 146.4 47.2 149.6L72 182.4C61.6 200.8 53.6 220.8 47.2 241.6L7.2 248C3.2 248.8 0 252 0 256V384C0 388 3.2 391.2 7.2 392L48 398.4C53.6 419.2 62.4 438.4 72.8 457.6L48 490.4C45.6 493.6 45.6 498.4 48.8 500.8L139.2 592C142.4 595.2 146.4 595.2 149.6 592.8L182.4 568C200.8 578.4 220.8 586.4 241.6 592.8L248 633.6C248.8 637.6 252 640.8 256 640.8H368C368.8 640.8 370.4 640.8 371.2 640C372 639.2 372.8 639.2 373.6 638.4L515.2 488H568C660.8 488 736 412.8 736 320C736 227.2 660.8 152 568 152ZM256.8 584.8C256 581.6 254.4 579.2 251.2 578.4C228.8 572 206.4 563.2 186.4 551.2C184 549.6 180 549.6 177.6 552L145.6 576L64.8 494.4L88.8 462.4C90.4 460 91.2 456 89.6 453.6C77.6 432.8 68.8 411.2 62.4 388.8C61.6 385.6 59.2 383.2 56 383.2L16 377.6V262.4L55.2 256.8C58.4 256 60.8 254.4 61.6 251.2C68 228.8 76.8 206.4 88.8 186.4C90.4 184 90.4 180 88 177.6L64 145.6L144.8 64.8L176.8 88.8C179.2 90.4 183.2 91.2 185.6 89.6C206.4 77.6 228 68.8 250.4 62.4C253.6 61.6 256 59.2 256 56L261.6 16.8H360V152.8H312C219.2 152.8 144 228 144 320.8C144 413.6 219.2 488.8 312 488.8H360V624.8H262.4L256.8 584.8ZM568 472H512C509.6 472 508 472.8 506.4 474.4L376 612V480C376 475.2 372.8 472 368 472H312C228 472 160 404 160 320C160 236 228 168 312 168H568C652 168 720 236 720 320C720 404 652 472 568 472Z" fill="white"/>
<path d="M440 264C408.8 264 384 288.8 384 320C384 351.2 408.8 376 440 376C471.2 376 496 351.2 496 320C496 288.8 471.2 264 440 264ZM440 360C417.6 360 400 342.4 400 320C400 297.6 417.6 280 440 280C462.4 280 480 297.6 480 320C480 342.4 462.4 360 440 360Z" fill="white"/>
<path d="M600 264C568.8 264 544 288.8 544 320C544 351.2 568.8 376 600 376C631.2 376 656 351.2 656 320C656 288.8 631.2 264 600 264ZM600 360C577.6 360 560 342.4 560 320C560 297.6 577.6 280 600 280C622.4 280 640 297.6 640 320C640 342.4 622.4 360 600 360Z" fill="white"/>
<path d="M280 264C248.8 264 224 288.8 224 320C224 351.2 248.8 376 280 376C311.2 376 336 351.2 336 320C336 288.8 311.2 264 280 264ZM280 360C257.6 360 240 342.4 240 320C240 297.6 257.6 280 280 280C302.4 280 320 297.6 320 320C320 342.4 302.4 360 280 360Z" fill="white"/>
</svg>
