<svg width="3840" height="2160" viewBox="0 0 3840 2160" fill="none" xmlns="http://www.w3.org/2000/svg">
<g clip-path="url(#clip0_252_69)">
<rect width="3840" height="2160" fill="black"/>
<g filter="url(#filter0_f_252_69)">
<ellipse cx="504" cy="529" rx="504" ry="529" transform="matrix(-1 0 0 1 1419 688)" fill="#77CACA" fill-opacity="0.2"/>
</g>
<g filter="url(#filter1_f_252_69)">
<ellipse cx="373" cy="359.5" rx="373" ry="359.5" transform="matrix(-1 0 0 1 2106 498)" fill="#77CACA" fill-opacity="0.6"/>
</g>
<g filter="url(#filter2_f_252_69)">
<ellipse cx="373" cy="359.5" rx="373" ry="359.5" transform="matrix(-1 0 0 1 4015 990)" fill="#77CACA" fill-opacity="0.6"/>
</g>
<g filter="url(#filter3_f_252_69)">
<ellipse cx="267.5" cy="280.5" rx="267.5" ry="280.5" transform="matrix(-1 0 0 1 678 867)" fill="#77CACA" fill-opacity="0.6"/>
</g>
<g filter="url(#filter4_f_252_69)">
<ellipse cx="495" cy="1148.5" rx="495" ry="1148.5" transform="matrix(1.19249e-08 -1 -1 -1.19249e-08 3657 1530)" fill="#77CACA" fill-opacity="0.1"/>
</g>
</g>
<defs>
<filter id="filter0_f_252_69" x="11" y="288" width="1808" height="1858" filterUnits="userSpaceOnUse" color-interpolation-filters="sRGB">
<feFlood flood-opacity="0" result="BackgroundImageFix"/>
<feBlend mode="normal" in="SourceGraphic" in2="BackgroundImageFix" result="shape"/>
<feGaussianBlur stdDeviation="200" result="effect1_foregroundBlur_252_69"/>
</filter>
<filter id="filter1_f_252_69" x="760" y="-102" width="1946" height="1919" filterUnits="userSpaceOnUse" color-interpolation-filters="sRGB">
<feFlood flood-opacity="0" result="BackgroundImageFix"/>
<feBlend mode="normal" in="SourceGraphic" in2="BackgroundImageFix" result="shape"/>
<feGaussianBlur stdDeviation="300" result="effect1_foregroundBlur_252_69"/>
</filter>
<filter id="filter2_f_252_69" x="2669" y="390" width="1946" height="1919" filterUnits="userSpaceOnUse" color-interpolation-filters="sRGB">
<feFlood flood-opacity="0" result="BackgroundImageFix"/>
<feBlend mode="normal" in="SourceGraphic" in2="BackgroundImageFix" result="shape"/>
<feGaussianBlur stdDeviation="300" result="effect1_foregroundBlur_252_69"/>
</filter>
<filter id="filter3_f_252_69" x="-457" y="267" width="1735" height="1761" filterUnits="userSpaceOnUse" color-interpolation-filters="sRGB">
<feFlood flood-opacity="0" result="BackgroundImageFix"/>
<feBlend mode="normal" in="SourceGraphic" in2="BackgroundImageFix" result="shape"/>
<feGaussianBlur stdDeviation="300" result="effect1_foregroundBlur_252_69"/>
</filter>
<filter id="filter4_f_252_69" x="760" y="-60" width="3497" height="2190" filterUnits="userSpaceOnUse" color-interpolation-filters="sRGB">
<feFlood flood-opacity="0" result="BackgroundImageFix"/>
<feBlend mode="normal" in="SourceGraphic" in2="BackgroundImageFix" result="shape"/>
<feGaussianBlur stdDeviation="300" result="effect1_foregroundBlur_252_69"/>
</filter>
<clipPath id="clip0_252_69">
<rect width="3840" height="2160" fill="white"/>
</clipPath>
</defs>
</svg>
