<svg xmlns="http://www.w3.org/2000/svg" width="1080" height="1920" fill="none" xmlns:v="https://vecta.io/nano"><style><![CDATA[.B{fill:#77caca}.C{color-interpolation-filters:sRGB}.D{flood-opacity:0}]]></style><g clip-path="url(#J)"><path fill="#000" d="M1080 0v1920H0V0z"/><g filter="url(#A)" class="B"><path transform="rotate(90 743 1511)" d="M743 1511h281v225H743z"/></g><g filter="url(#B)" class="B"><ellipse cx="717.5" cy="1493" rx="104" ry="28.5" transform="rotate(90 717.5 1493)"/><ellipse cx="717.5" cy="1493" rx="104" ry="28.5" transform="rotate(90 717.5 1493)"/><ellipse cx="717.5" cy="1493" rx="104" ry="28.5" transform="rotate(90 717.5 1493)"/></g><g filter="url(#C)" class="B"><ellipse cx="595.5" cy="1305.5" rx="240.5" ry="65.5" transform="rotate(90 595.5 1305.5)"/><ellipse cx="595.5" cy="1305.5" rx="240.5" ry="65.5" transform="rotate(90 595.5 1305.5)"/><ellipse cx="595.5" cy="1305.5" rx="240.5" ry="65.5" transform="rotate(90 595.5 1305.5)"/></g><g filter="url(#D)" class="B"><ellipse cx="529.5" cy="1272.5" rx="207.5" ry="101.5" transform="rotate(90 529.5 1272.5)"/></g><g filter="url(#E)" class="B"><ellipse cx="360" cy="628" rx="133" ry="100" transform="rotate(90 360 628)" fill-opacity=".19"/></g><g filter="url(#F)" class="B"><ellipse cx="468.5" cy="544.5" rx="216.5" ry="162.5" transform="rotate(90 468.5 544.5)" fill-opacity=".26"/></g><g filter="url(#G)" class="B"><ellipse cx="780.5" cy="726.5" rx="216.5" ry="162.5" transform="rotate(90 780.5 726.5)" fill-opacity=".09"/></g><g filter="url(#H)" class="B"><ellipse cx="222.5" cy="1130.5" rx="116.5" ry="87.5" transform="rotate(90 222.5 1130.5)" fill-opacity=".19"/></g><g filter="url(#I)" class="B"><ellipse cx="852" cy="172" rx="217" ry="163" transform="rotate(90 852 172)" fill-opacity=".36"/></g></g><defs><filter id="A" x="18" y="1011" width="1225" height="1281" filterUnits="userSpaceOnUse" class="C"><feFlood class="D"/><feBlend in="SourceGraphic"/><feGaussianBlur stdDeviation="250"/></filter><filter id="B" x="189" y="889" width="1057" height="1208" filterUnits="userSpaceOnUse" class="C"><feFlood class="D"/><feBlend in="SourceGraphic"/><feGaussianBlur stdDeviation="250"/></filter><filter id="C" x="30" y="565" width="1131" height="1481" filterUnits="userSpaceOnUse" class="C"><feFlood class="D"/><feBlend in="SourceGraphic"/><feGaussianBlur stdDeviation="250"/></filter><filter id="D" x="-72" y="565" width="1203" height="1415" filterUnits="userSpaceOnUse" class="C"><feFlood class="D"/><feBlend in="SourceGraphic"/><feGaussianBlur stdDeviation="250"/></filter><filter id="E" x="-240" y="-5" width="1200" height="1266" filterUnits="userSpaceOnUse" class="C"><feFlood class="D"/><feBlend in="SourceGraphic"/><feGaussianBlur stdDeviation="250"/></filter><filter id="F" x="-194" y="-172" width="1325" height="1433" filterUnits="userSpaceOnUse" class="C"><feFlood class="D"/><feBlend in="SourceGraphic"/><feGaussianBlur stdDeviation="250"/></filter><filter id="G" x="118" y="10" width="1325" height="1433" filterUnits="userSpaceOnUse" class="C"><feFlood class="D"/><feBlend in="SourceGraphic"/><feGaussianBlur stdDeviation="250"/></filter><filter id="H" x="-365" y="514" width="1175" height="1233" filterUnits="userSpaceOnUse" class="C"><feFlood class="D"/><feBlend in="SourceGraphic"/><feGaussianBlur stdDeviation="250"/></filter><filter id="I" x="189" y="-545" width="1326" height="1434" filterUnits="userSpaceOnUse" class="C"><feFlood class="D"/><feBlend in="SourceGraphic"/><feGaussianBlur stdDeviation="250"/></filter><clipPath id="J"><path fill="#fff" transform="matrix(0 1 -1 0 1080 0)" d="M0 0h1920v1080H0z"/></clipPath></defs></svg>