<svg width="800" height="800" viewBox="0 0 800 800" fill="none" xmlns="http://www.w3.org/2000/svg">
<path d="M687.11 177.778H589.999C584.106 177.778 578.453 180.119 574.286 184.287C570.118 188.454 567.777 194.106 567.777 200C567.777 205.894 570.118 211.546 574.286 215.713C578.453 219.881 584.106 222.222 589.999 222.222H688.888V666.667H111.11V222.222H208.444C214.337 222.222 219.99 219.881 224.157 215.713C228.325 211.546 230.666 205.894 230.666 200C230.666 194.106 228.325 188.454 224.157 184.287C219.99 180.119 214.337 177.778 208.444 177.778H112.888C106.904 177.538 100.933 178.511 95.3336 180.637C89.7345 182.763 84.6228 185.998 80.3056 190.15C75.9884 194.301 72.5548 199.282 70.2109 204.793C67.867 210.305 66.6612 216.233 66.666 222.222V666.667C66.6612 672.656 67.867 678.584 70.2109 684.096C72.5548 689.607 75.9884 694.588 80.3056 698.739C84.6228 702.89 89.7345 706.126 95.3336 708.252C100.933 710.378 106.904 711.351 112.888 711.111H687.11C693.095 711.351 699.066 710.378 704.665 708.252C710.264 706.126 715.376 702.89 719.693 698.739C724.01 694.588 727.444 689.607 729.788 684.096C732.132 678.584 733.337 672.656 733.333 666.667V222.222C733.337 216.233 732.132 210.305 729.788 204.793C727.444 199.282 724.01 194.301 719.693 190.15C715.376 185.998 710.264 182.763 704.665 180.637C699.066 178.511 693.095 177.538 687.11 177.778Z" fill="white"/>
<path d="M228.889 419.334L384.445 572.445C388.599 576.516 394.184 578.797 400 578.797C405.817 578.797 411.402 576.516 415.556 572.445L571.111 419.334C575.325 415.208 577.728 409.577 577.79 403.68C577.853 397.784 575.57 392.103 571.445 387.889C567.319 383.675 561.689 381.273 555.792 381.21C549.895 381.148 544.214 383.43 540 387.556L422.223 503.334V88.8892C422.223 82.9955 419.881 77.3432 415.714 73.1757C411.546 69.0083 405.894 66.667 400 66.667C394.107 66.667 388.454 69.0083 384.287 73.1757C380.119 77.3432 377.778 82.9955 377.778 88.8892V503.334L260 387.556C255.786 383.43 250.106 381.148 244.209 381.21C238.312 381.273 232.682 383.675 228.556 387.889C224.43 392.103 222.148 397.784 222.21 403.68C222.273 409.577 224.675 415.208 228.889 419.334Z" fill="white"/>
</svg>
