<svg xmlns="http://www.w3.org/2000/svg" viewBox="0 0 69.28 68.09" xmlns:v="https://vecta.io/nano"><defs><linearGradient id="A" x1="34.64" y1="61.22" x2="34.64" y2="2.55" gradientUnits="userSpaceOnUse"><stop offset="0" stop-color="#fff"/><stop offset="0" stop-color="#3557a6"/><stop offset="0" stop-color="#fff" stop-opacity="0"/><stop offset=".09" stop-color="#f6f7f7"/><stop offset="1" stop-color="#6f8e9a"/></linearGradient><linearGradient id="B" x1="34.64" y1="68.09" x2="34.64" gradientUnits="userSpaceOnUse"><stop offset="0" stop-color="#fff"/><stop offset="0" stop-color="#3557a6"/><stop offset=".57" stop-color="#1bbddd"/><stop offset=".79" stop-color="#79cbcb"/></linearGradient></defs><path d="M17.67 10.14v51.08h12.09V23.78l20.63 21.45a.54.54 0 0 0 .92-.37V11.22c0-5 3-6.89 3-6.89a2.73 2.73 0 0 0-1.11-.88 8.71 8.71 0 0 0-7.65 0c-3.76 1.83-6.12 6.07-6.12 10.65v4.8L26.2 5.36a8.67 8.67 0 0 0-7.89-2.53A8.46 8.46 0 0 0 15 4.36a8.14 8.14 0 0 1 2.67 5.78z" fill="url(#A)"/><path d="M69.28,14.4h0A14.1,14.1,0,0,0,55.18.29H53.61A14.07,14.07,0,0,0,42.29,6s3.3-3.46,7.18-3.51A7.51,7.51,0,0,1,57,10V51.37a3.31,3.31,0,0,1-5.68,2.31L15,16.64c-3.42-3.48-3.53-9.34.23-12.44,3.6-3,10.16.41,10.16.41S18.4-2.7,9.25,1.09C.78,4.59.18,13.41.18,13.41L0,52.19S-.68,70.46,18.43,67.54a11.06,11.06,0,0,0,5.95-3.1,7.81,7.81,0,0,1-4.9,1.24h0a7.5,7.5,0,0,1-7.5-7.5V30.86l31.83,32.7c9.28,9.55,25.47,3,25.47-10.35V14.4" fill="url(#B)"/></svg>