<svg xmlns="http://www.w3.org/2000/svg" viewBox="0 0 35.46 35.53"><defs><style>.cls-1{fill:#79cccb;}</style></defs><g id="Layer_2" data-name="Layer 2"><g id="Layer_1-2" data-name="Layer 1"><path class="cls-1" d="M30.92,35.53h-.41a34.32,34.32,0,0,1-14.89-5.29A33.68,33.68,0,0,1,5.3,19.9,34.18,34.18,0,0,1,0,5,4.57,4.57,0,0,1,4.15,0l.4,0h5a4.58,4.58,0,0,1,4.51,3.92,20.53,20.53,0,0,0,1.09,4.4,4.58,4.58,0,0,1-1,4.81l-1.42,1.43a25.33,25.33,0,0,0,8.19,8.19l1.42-1.42a4.58,4.58,0,0,1,4.82-1,19.94,19.94,0,0,0,4.38,1.1A4.55,4.55,0,0,1,35.46,26v5a4.56,4.56,0,0,1-4.54,4.57ZM9.56,2.49H4.38A2.07,2.07,0,0,0,2.49,4.75a31.78,31.78,0,0,0,4.9,13.81A31.46,31.46,0,0,0,17,28.14,31.87,31.87,0,0,0,30.74,33h.18A2.08,2.08,0,0,0,33,31V26a2.08,2.08,0,0,0-1.79-2.1,22.73,22.73,0,0,1-4.92-1.23,2.09,2.09,0,0,0-2.19.47L22,25.19a1.24,1.24,0,0,1-1.49.2A27.72,27.72,0,0,1,10.07,15a1.25,1.25,0,0,1,.21-1.49l2.1-2.1a2.08,2.08,0,0,0,.46-2.19,23.11,23.11,0,0,1-1.23-4.93A2.07,2.07,0,0,0,9.56,2.49Z"/></g></g></svg>