<svg width="800" height="800" viewBox="0 0 800 800" fill="none" xmlns="http://www.w3.org/2000/svg">
<path d="M146.637 93.8321C179.329 81.729 216.41 89.493 241.506 114.583C276.616 149.693 276.616 206.634 241.504 241.746C206.385 276.866 149.451 276.866 114.332 241.746C89.1364 216.551 81.4216 179.266 93.7325 146.485C96.8396 138.213 92.6521 128.988 84.3794 125.881C76.1068 122.774 66.8825 126.962 63.7755 135.234C47.0903 179.663 57.5505 230.22 91.7044 264.374C139.321 311.99 216.515 311.99 264.132 264.374C311.74 216.765 311.74 139.563 264.132 91.954C230.115 57.9461 179.836 47.4188 135.527 63.8227C127.24 66.8907 123.009 76.0954 126.077 84.3821C129.145 92.6688 138.35 96.9001 146.637 93.8321Z" fill="white"/>
<path d="M126.101 92.2514L167.412 133.555C170.796 136.941 170.796 142.447 167.412 145.831L145.596 167.647C142.205 171.038 136.711 171.038 133.32 167.647L92.2305 126.565C85.9812 120.318 75.8508 120.319 69.6031 126.568C63.3555 132.817 63.3562 142.947 69.6055 149.195L110.694 190.275C126.581 206.162 152.336 206.162 168.224 190.274L190.04 168.458C205.92 152.579 205.92 126.82 190.045 110.932L148.727 69.6217C142.477 63.374 132.347 63.3748 126.099 69.624C119.852 75.8732 119.852 86.0037 126.101 92.2514ZM653.454 706.746C620.762 718.849 583.681 711.085 558.585 685.995C523.475 650.885 523.475 593.944 558.587 558.832C593.706 523.712 650.64 523.712 685.759 558.832C710.955 584.027 718.67 621.312 706.359 654.093C703.252 662.365 707.439 671.59 715.712 674.697C723.984 677.804 733.209 673.616 736.316 665.344C753.001 620.915 742.541 570.358 708.387 536.204C660.77 488.588 583.576 488.588 535.959 536.204C488.351 583.813 488.351 661.015 535.959 708.624C569.976 742.632 620.255 753.159 664.564 736.755C672.851 733.687 677.082 724.483 674.014 716.196C670.946 707.909 661.741 703.678 653.455 706.746H653.454Z" fill="white"/>
<path d="M673.996 708.328L632.692 667.024C629.301 663.633 629.301 658.135 632.687 654.752L654.502 632.929C657.892 629.539 663.385 629.539 666.776 632.932L707.865 674.013C714.114 680.261 724.245 680.26 730.493 674.01C736.74 667.761 736.739 657.631 730.49 651.383L689.402 610.303C673.514 594.416 647.76 594.416 631.871 610.304L610.061 632.122C594.175 647.996 594.175 673.762 610.064 689.652L651.368 730.956C657.616 737.204 667.746 737.204 673.995 730.956C680.243 724.707 680.243 714.577 673.995 708.328L673.996 708.328ZM526.931 576.708L221.259 271.036C215.011 264.788 204.88 264.788 198.632 271.036C192.383 277.285 192.383 287.415 198.632 293.664L504.303 599.336C510.552 605.584 520.682 605.584 526.931 599.336C533.179 593.087 533.179 582.957 526.931 576.708ZM268.571 218.171L581.363 530.963C587.611 537.211 597.742 537.211 603.99 530.963C610.239 524.714 610.239 514.584 603.99 508.336L291.198 195.543C284.95 189.295 274.819 189.295 268.571 195.543C262.322 201.792 262.322 211.922 268.571 218.171ZM468.506 306.077L606.578 168.005C612.826 161.757 612.826 151.626 606.578 145.378C600.329 139.129 590.199 139.129 583.95 145.378L445.878 283.45C439.63 289.698 439.63 299.829 445.878 306.077C452.127 312.325 462.257 312.325 468.506 306.077ZM636 188.957L493.385 330.189C487.106 336.407 487.057 346.537 493.275 352.816C499.493 359.095 509.623 359.144 515.902 352.926L658.518 211.694C664.796 205.476 664.846 195.346 658.628 189.067C652.41 182.788 642.279 182.739 636 188.957Z" fill="white"/>
<path d="M738.843 102.348C740.965 104.471 742.448 107.148 743.121 110.073C743.795 112.999 743.631 116.055 742.65 118.892L720.618 182.588C719.826 184.878 718.524 186.958 716.811 188.671C715.098 190.384 713.018 191.686 710.728 192.478L647.024 214.518C644.187 215.5 641.13 215.664 638.204 214.99C635.278 214.317 632.601 212.834 630.478 210.711L588.822 169.046C586.699 166.924 585.217 164.247 584.544 161.321C583.871 158.396 584.034 155.34 585.016 152.503L607.047 88.8074C607.839 86.5177 609.141 84.4378 610.854 82.7246C612.567 81.0114 614.647 79.7096 616.937 78.9175L680.633 56.8777C683.47 55.8959 686.526 55.7322 689.452 56.4055C692.378 57.0787 695.055 58.5616 697.178 60.6847L738.842 102.349L738.843 102.348ZM681.633 90.3933L634.749 106.616L618.532 153.502L646.027 181.003L692.919 164.779L709.136 117.895L681.634 90.3933H681.633ZM352.598 515.839L163.094 705.343C157.237 711.2 150.202 711.957 147.677 709.434L89.442 651.199C86.9241 648.678 87.6811 641.647 93.542 635.782L282.674 446.658C288.923 440.41 288.922 430.279 282.675 424.031C276.427 417.782 266.296 417.782 260.048 424.03L70.9116 613.158C53.5053 630.576 50.5967 657.593 66.8108 673.821L125.055 732.065C141.288 748.284 168.317 745.375 185.722 727.969L375.226 538.465C381.475 532.217 381.475 522.086 375.226 515.838C368.978 509.589 358.848 509.589 352.599 515.838L352.598 515.839Z" fill="white"/>
</svg>
