<svg xmlns="http://www.w3.org/2000/svg" xmlns:xlink="http://www.w3.org/1999/xlink" viewBox="0 0 34.67 26" xmlns:v="https://vecta.io/nano"><defs><clipPath id="A" transform="translate(.37 .15)"><rect width="25" height="25" rx="8" fill="none"/></clipPath><path id="B" d="M12.62 20.08c-2.33-1.12-5.67-3.35-5.67-7.76l.22-6.41h10.9s.21 2 .21 6.41-3.33 6.63-5.66 7.76z"/><path id="C" d="M12.62 19.5c-2.14-1-5.2-3.08-5.2-7.12l.2-5.89h10s.19 1.85.19 5.89-3.05 6.09-5.19 7.12z"/><path id="D" d="M13.07 11.32a8.31 8.31 0 0 0 2.72-.3c0 0 0 .36 0 .78v.78a8.59 8.59 0 0 0-2.72-.31v2.23h-.91v-2.24a9.18 9.18 0 0 0-2.71.31c0 0 0-.36 0-.78v-.78a8.25 8.25 0 0 0 2.71.3v-1.4a6.78 6.78 0 0 0-2.15.31c0 0 0-.35 0-.78v-.78a6.26 6.26 0 0 0 2.15.31 12.36 12.36 0 0 0-.29-2c0 0 .54 0 .75 0h.75a12.36 12.36 0 0 0-.29 2 6.2 6.2 0 0 0 2.14-.31c0 0 0 .37 0 .78v.78a6.51 6.51 0 0 0-2.15-.31v1.4z"/><path id="E" d="M12.62 14.26c-1.08 0-1.65 1.49-1.65 1.49a1.34 1.34 0 0 0-1.2-.7 1.69 1.69 0 0 0-1.32 1 10 10 0 0 0 4.17 3.44 10 10 0 0 0 4.17-3.44c-.29-.49-.72-1-1.31-1a1.32 1.32 0 0 0-1.2.7c0 0-.58-1.49-1.66-1.49z"/></defs><g opacity=".69"><g clip-path="url(#A)"><path d="M0 0h34.66v26H0z" fill="#e82027"/><path d="M0 0h34.66v17.33H0z" fill="#0a509b"/><g fill="#fff"><path d="M0 0h34.66v8.66H0z"/><use xlink:href="#B"/></g><use xlink:href="#C" fill="#e82027"/><use xlink:href="#D" fill="#fff"/><use xlink:href="#E" fill="#0a509b"/></g></g><g clip-path="url(#A)"><path d="M0 0h34.66v26H0z" fill="#e82027"/><path d="M0 0h34.66v17.33H0z" fill="#0a509b"/><g fill="#fff"><path d="M0 0h34.66v8.66H0z"/><use xlink:href="#B"/></g><use xlink:href="#C" fill="#e82027"/><use xlink:href="#D" fill="#fff"/><use xlink:href="#E" fill="#0a509b"/></g><rect x=".87" y=".65" width="24" height="24" rx="7.5" fill="none" stroke="#afb0b5"/></svg>