<svg xmlns="http://www.w3.org/2000/svg" viewBox="0 0 73.97 74.17"><defs><style>.cls-1{fill:none;stroke:#78c7c7;stroke-miterlimit:10;stroke-width:5px;}</style></defs><g id="Layer_2" data-name="Layer 2"><g id="Layer_1-2" data-name="Layer 1"><path class="cls-1" d="M10.77,35.45C16,28.72,38.21,3.91,63,35.54a2.57,2.57,0,0,1,.09,3.05c-4.95,7.18-27,34.83-52.36-.05A2.6,2.6,0,0,1,10.77,35.45Z"/><circle class="cls-1" cx="37.1" cy="37.77" r="8.02"/><circle class="cls-1" cx="8.45" cy="8.45" r="5.85"/><circle class="cls-1" cx="65.62" cy="8.35" r="5.85"/><circle class="cls-1" cx="65.24" cy="65.72" r="5.85"/><circle class="cls-1" cx="8.35" cy="65.81" r="5.85"/><line class="cls-1" x1="61.74" y1="12.62" x2="50.65" y2="23.71"/><line class="cls-1" x1="12.26" y1="61.71" x2="22.2" y2="50.57"/><line class="cls-1" x1="61.24" y1="61.81" x2="50.97" y2="50.65"/><path class="cls-1" d="M12,12.33c.14,0,11.42,11.24,11.42,11.24"/></g></g></svg>