<svg xmlns="http://www.w3.org/2000/svg" viewBox="0 0 220.8 168.7"><defs><style>.cls-1{fill:#a2d5e1;opacity:0.5;}</style></defs><g id="Layer_2" data-name="Layer 2"><g id="Layer_1-2" data-name="Layer 1"><path class="cls-1" d="M149.15,140c-4.16,3.9-8,7.4-11.72,11-3,2.9-4.12,3-7,.08-3.3-3.3-6.59-6.61-9.47-9.5-6.56,2.63-12.75,5.22-19,7.57-3.14,1.17-3.21,1-3.21,4.45,0,3.7,0,7.41,0,11.12,0,2.8-1.13,3.93-3.9,4q-10.58,0-21.13,0c-2.79,0-3.93-1.1-4-3.91q-.09-6.68,0-13.34a1.78,1.78,0,0,0-1.61-2.12,63.08,63.08,0,0,1-18.79-7.79c-1.17-.73-1.78-.41-2.62.45-2.89,3-5.84,5.91-8.79,8.83-2.24,2.21-3.85,2.23-6.06,0q-7.18-7.14-14.32-14.31c-2.21-2.22-2.19-3.82,0-6.06q4.77-4.82,9.57-9.61a1.79,1.79,0,0,0,.26-.42c-1.51-2.92-3.22-5.79-4.48-8.84a101.44,101.44,0,0,1-3.7-10.91c-.46-1.59-1.13-2.07-2.73-2-3.92.11-7.86,0-11.79,0C1,98.66,0,97.74,0,94.12q0-10,0-20c0-3.49,1-4.44,4.54-4.47,4.15,0,8.3,0,12.45,0,1.39,0,2.07-.29,2.41-1.81a64.94,64.94,0,0,1,8.18-20c-3.37-3.36-6.69-6.64-10-9.94-2.33-2.33-2.34-3.9,0-6.22q7.07-7.09,14.16-14.15c2.32-2.31,3.88-2.3,6.23,0,3.3,3.29,6.59,6.59,9.37,9.38,6.51-2.59,12.56-5.12,18.71-7.38,3.54-1.3,3.62-1.1,3.62-4.81,0-3.41,0-6.83,0-10.24C69.7.89,70.61,0,74.34,0H94.13c3.63,0,4.56,1,4.57,4.65,0,4.23,0,8.45,0,12.68,0,.62.55,1.68,1,1.79a80.59,80.59,0,0,1,20.72,8.46c3.25-3.27,6.47-6.53,9.7-9.77,2.64-2.64,4.06-2.64,6.7,0,3.93,3.93,7.89,7.84,11.77,11.82a2.36,2.36,0,0,0,3.07.69c3.93-1.7,7.93-3.25,11.7-4.78a43.75,43.75,0,0,1,.66-6.14A13.67,13.67,0,0,1,177.39,9a13.94,13.94,0,0,1,13.89,10,14.13,14.13,0,0,1-23.12,14.49,3.15,3.15,0,0,0-4-.73Q139,42.94,113.86,52.94a8.47,8.47,0,0,1-3,.49c-6.14,0-12.28,0-18.56,0V67.22c6.42,0,12.86.64,19.1-.21,4.88-.67,9.5-3.19,14.23-4.9,6.41-2.32,12.79-4.68,19.21-7a12.24,12.24,0,0,1,3.88-.69c7.64-.07,15.27-.06,22.91,0,1.41,0,2.16-.21,2.64-1.82a14.13,14.13,0,1,1,.69,10.29,2.29,2.29,0,0,0-2.49-1.54c-7.94,0-15.87,0-23.8,0a10.06,10.06,0,0,0-3.23.66C134.7,66,124,69.9,113.28,73.76a9.34,9.34,0,0,1-3,.4c-5.93,0-11.86,0-17.94,0v8.44H192.84c.15-.34.36-.79.54-1.25a14.14,14.14,0,0,1,15.78-9.1,14.16,14.16,0,1,1-15.66,19c-.42-1.06-.8-1.68-2.15-1.68q-48.93.06-97.87,0c-.36,0-.72.07-1.2.12v8.4c.53,0,1.09.14,1.66.16,6.85.23,13.87-.38,20.52.9s13.12,4.15,19.42,6.89c9,3.88,18.08,5.77,27.83,4.81a91,91,0,0,1,10.45-.09,2.38,2.38,0,0,0,2.75-1.78,14.14,14.14,0,1,1,.1,10.51c-.64-1.67-1.46-2-3.07-1.94q-11.56.27-23.13.3a11.6,11.6,0,0,1-3.86-.7c-10.59-3.8-21.15-7.67-31.72-11.51a5.39,5.39,0,0,0-1.7-.49c-6.36,0-12.72,0-19.24,0V118c3.31,0,6.65.26,9.93,0,7.31-.69,13.93,1.24,20.59,4,14.52,6.13,29.21,11.85,43.84,17.74.54.22,1.1.38,1.77.61a14.35,14.35,0,0,1,13.37-6.37,14.12,14.12,0,0,1,.08,28.1c-8.66.59-14.87-4.93-15.55-13.72a2.65,2.65,0,0,0-1.31-1.88C159.56,144.15,154.05,142,149.15,140Zm-7.58-3c-6-2.42-11.78-4.39-17.22-7a50.07,50.07,0,0,0-27.07-5.08c-1.65.16-3.33,0-5.12,0,0,2.27,0,4.19,0,6.1-.07,2.19-1.35,3.56-3.48,3.46a113.23,113.23,0,0,1-12.37-.89c-20.63-3.25-37.53-19.44-41.45-39.49A50.42,50.42,0,0,1,58.6,40.77a51.08,51.08,0,0,1,29.17-6.93c3.31.16,4.4,1.07,4.39,4.35v8.35c6,0,11.65.05,17.34,0a11.37,11.37,0,0,0,3.87-.75c5.93-2.31,11.82-4.73,17.71-7.12C135,37,139,35.43,142.46,34L133,24.57c-2.76,2.77-5.73,5.77-8.72,8.76-2.59,2.59-3.69,2.73-6.76.75a59.07,59.07,0,0,0-21-8.58c-4.23-.8-4.75-1.38-4.75-5.69V7H76.59c0,4.62,0,9.06,0,13.5,0,3.13-.91,4.3-4,4.85a62.3,62.3,0,0,0-22.34,8.9c-2.8,1.76-4,1.6-6.43-.79-3.08-3.07-6.14-6.17-8.56-8.61l-11.12,10C27.3,38,30.3,41,33.28,44c2.69,2.69,2.8,3.71.75,6.95a58.67,58.67,0,0,0-8.68,21.94c-.48,2.85-1.58,3.71-4.55,3.72-4.58,0-9.15,0-13.81,0V91.73H20.45c3.15,0,4.34.9,4.89,4A62.08,62.08,0,0,0,34.22,118c1.78,2.83,1.63,4.07-.73,6.44-3.07,3.09-6.16,6.16-9,9l10.72,10.72c3.08-3.09,6.3-6.36,9.56-9.57,1.83-1.8,3.3-2,5.36-.48a57.52,57.52,0,0,0,22.33,9.41c3.67.77,4.17,1.45,4.17,5.29V162H91.75c0-4.67,0-9.18,0-13.69,0-3,.71-3.91,3.69-4.57a65.7,65.7,0,0,0,21.87-8.95c3.43-2.22,4.33-2.1,7.27.85s6.12,6.16,8.76,8.82ZM85.08,40.55c-16.88.66-30,7.41-38.45,22a42.81,42.81,0,0,0,3.19,47.83c8.85,11.49,20.79,16.74,35.26,17.15Zm103.06,80.9a7.27,7.27,0,1,0-7.35-7.3A7.22,7.22,0,0,0,188.14,121.45Zm-7.78,33.81a7.27,7.27,0,1,0-7.16-7.48A7.21,7.21,0,0,0,180.36,155.26ZM177.73,30.32a7.1,7.1,0,0,0,7.21-7.17A7.24,7.24,0,1,0,170.47,23,7.09,7.09,0,0,0,177.73,30.32Zm36.23,56a7.27,7.27,0,1,0-7.43,7.2A7.19,7.19,0,0,0,214,86.28ZM194.94,57a7.23,7.23,0,1,0-7.21,7.15A7.07,7.07,0,0,0,194.94,57Z"/></g></g></svg>