<svg xmlns="http://www.w3.org/2000/svg" viewBox="0 0 66.8 81.66"><defs><style>.cls-1{fill:#78c7c7;}</style></defs><g id="Layer_2" data-name="Layer 2"><g id="Layer_1-2" data-name="Layer 1"><rect class="cls-1" x="21.04" y="74.47" width="19.02" height="7.19" rx="2"/><rect class="cls-1" x="15.88" y="62.7" width="29.33" height="7.19" rx="2"/><path class="cls-1" d="M21.77,57.19H18.69a2,2,0,0,1-2-2v-.92a28.39,28.39,0,1,1,40-28,2,2,0,0,1-2,2.14H51.61a2,2,0,0,1-2-1.83,21.32,21.32,0,1,0-28.24,22l1,.36a2,2,0,0,1,1.34,1.89v4.41A2,2,0,0,1,21.77,57.19Z"/><path class="cls-1" d="M46.12,56.56l-8.89-8.9a2,2,0,0,1,0-2.83l2.18-2.17a2,2,0,0,1,2.82,0l3.89,3.89a2,2,0,0,0,2.83,0L61.21,34.3a2,2,0,0,1,2.83,0l2.17,2.17a2,2,0,0,1,0,2.83L49,56.56A2,2,0,0,1,46.12,56.56Z"/></g></g></svg>