<svg xmlns="http://www.w3.org/2000/svg" viewBox="0 0 67.49 53.63"><defs><style>.cls-1{fill:#77c8c8;}</style></defs><g id="Layer_2" data-name="Layer 2"><g id="Layer_1-2" data-name="Layer 1"><path class="cls-1" d="M3,53.63H2a2,2,0,0,1-2-2V44.05a15.2,15.2,0,0,1,15.2-15.2h7.12a15.2,15.2,0,0,1,15.19,15.2v7.57a2,2,0,0,1-2,2h-1a2,2,0,0,1-2-2V44.05a10.2,10.2,0,0,0-10.19-10.2H15.2A10.2,10.2,0,0,0,5,44.05v7.58A2,2,0,0,1,3,53.63Z"/><path class="cls-1" d="M65.49,53.63h-1a2,2,0,0,1-2-2V46.17A10.2,10.2,0,0,0,52.29,36H47.17a2,2,0,0,1-2-2V33a2,2,0,0,1,2-2h5.12a15.2,15.2,0,0,1,15.2,15.19v5.46A2,2,0,0,1,65.49,53.63Z"/><path class="cls-1" d="M49,28.82,34.57,14.41,49,0,63.39,14.41ZM41.64,14.41,49,21.75l7.34-7.34L49,7.07Z"/><path class="cls-1" d="M19.57,26A11.87,11.87,0,1,1,31.44,14.09,11.89,11.89,0,0,1,19.57,26Zm0-18.74a6.87,6.87,0,1,0,6.87,6.87A6.88,6.88,0,0,0,19.57,7.22Z"/></g></g></svg>