{"asset":{"generator":"glTF-Transform v3.5.1","version":"2.0","extras":{"author":"Meee (https://sketchfab.com/Meee)","license":"CC-BY-4.0 (http://creativecommons.org/licenses/by/4.0/)","source":"https://sketchfab.com/3d-models/earth-hologram-87072288fb234226b9a3f02ae674a310","title":"Earth hologram"}},"accessors":[{"type":"VEC3","componentType":5126,"count":9150,"max":[0.976069986820221,0.8529199957847595,0.991569995880127],"min":[-0.9803500175476074,-0.9653900265693665,-0.9914299845695496],"bufferView":0,"byteOffset":0},{"type":"VEC3","componentType":5126,"count":9150,"bufferView":0,"byteOffset":12},{"type":"VEC2","componentType":5126,"count":9150,"bufferView":0,"byteOffset":24},{"type":"VEC3","componentType":5126,"count":29040,"max":[3.4538300037384033,3.462630033493042,3.4700000286102295],"min":[-3.443730115890503,-3.4698400497436523,-3.4700000286102295],"bufferView":1,"byteOffset":0},{"type":"VEC3","componentType":5126,"count":29040,"bufferView":1,"byteOffset":12},{"type":"VEC2","componentType":5126,"count":29040,"bufferView":1,"byteOffset":24},{"type":"VEC3","componentType":5126,"count":15360,"max":[1.0553100109100342,1.0553100109100342,0.09565000236034393],"min":[-1.0553100109100342,-1.0553100109100342,-0.09565000236034393],"bufferView":2,"byteOffset":0},{"type":"VEC3","componentType":5126,"count":15360,"bufferView":2,"byteOffset":12},{"type":"VEC2","componentType":5126,"count":15360,"bufferView":2,"byteOffset":24},{"type":"VEC3","componentType":5126,"count":1926,"max":[22.60460090637207,22.639860153198242,22.615449905395508],"min":[-22.6055908203125,-22.639860153198242,-22.610389709472656],"bufferView":3,"byteOffset":0},{"type":"VEC3","componentType":5126,"count":1926,"bufferView":3,"byteOffset":12},{"type":"VEC2","componentType":5126,"count":1926,"bufferView":3,"byteOffset":24},{"type":"VEC3","componentType":5126,"count":1926,"max":[0.5634700059890747,0.5641099810600281,0.34310001134872437],"min":[-0.5612800121307373,-0.5612200498580933,-0.5647700428962708],"bufferView":4,"byteOffset":0},{"type":"VEC3","componentType":5126,"count":3904,"max":[0.9838899970054626,1.0032099485397339,0.012129999697208405],"min":[-1.0032099485397339,-1.0032099485397339,-0.012179999612271786],"bufferView":5,"byteOffset":0},{"type":"VEC3","componentType":5126,"count":3904,"bufferView":5,"byteOffset":12},{"type":"VEC2","componentType":5126,"count":3904,"bufferView":5,"byteOffset":24},{"type":"VEC3","componentType":5126,"count":3840,"max":[1.7252099514007568,1.8140000104904175,1.8140000104904175],"min":[-1.7252099514007568,-1.8140000104904175,-1.8140000104904175],"bufferView":6,"byteOffset":0},{"type":"VEC3","componentType":5126,"count":3840,"bufferView":6,"byteOffset":12},{"type":"VEC2","componentType":5126,"count":3840,"bufferView":6,"byteOffset":24},{"type":"SCALAR","componentType":5125,"count":9150,"bufferView":7,"byteOffset":0},{"type":"SCALAR","componentType":5125,"count":43200,"bufferView":7,"byteOffset":36600},{"type":"SCALAR","componentType":5125,"count":23040,"bufferView":7,"byteOffset":209400},{"type":"SCALAR","componentType":5125,"count":1926,"bufferView":7,"byteOffset":301560},{"type":"SCALAR","componentType":5125,"count":5856,"bufferView":7,"byteOffset":309264},{"type":"SCALAR","componentType":5125,"count":5760,"bufferView":7,"byteOffset":332688},{"type":"SCALAR","componentType":5126,"count":250,"max":[10.416669845581055],"min":[0.041669998317956924],"bufferView":8,"byteOffset":0},{"type":"VEC4","componentType":5126,"count":250,"bufferView":8,"byteOffset":1000},{"type":"SCALAR","componentType":5126,"count":250,"max":[10.416669845581055],"min":[0.041669998317956924],"bufferView":8,"byteOffset":5000},{"type":"VEC4","componentType":5126,"count":250,"bufferView":8,"byteOffset":6000},{"type":"SCALAR","componentType":5126,"count":250,"max":[10.416669845581055],"min":[0.041669998317956924],"bufferView":8,"byteOffset":10000},{"type":"VEC4","componentType":5126,"count":250,"bufferView":8,"byteOffset":11000},{"type":"SCALAR","componentType":5126,"count":230,"max":[10.416669845581055],"min":[0.041669998317956924],"bufferView":8,"byteOffset":15000},{"type":"VEC3","componentType":5126,"count":230,"bufferView":8,"byteOffset":15920},{"type":"SCALAR","componentType":5126,"count":250,"max":[10.416669845581055],"min":[0.041669998317956924],"bufferView":8,"byteOffset":18680},{"type":"VEC4","componentType":5126,"count":250,"bufferView":8,"byteOffset":19680},{"type":"SCALAR","componentType":5126,"count":250,"max":[10.416669845581055],"min":[0.041669998317956924],"bufferView":8,"byteOffset":23680},{"type":"VEC4","componentType":5126,"count":250,"bufferView":8,"byteOffset":24680},{"type":"SCALAR","componentType":5126,"count":250,"max":[10.416669845581055],"min":[0.041669998317956924],"bufferView":8,"byteOffset":28680},{"type":"VEC4","componentType":5126,"count":250,"bufferView":8,"byteOffset":29680},{"type":"SCALAR","componentType":5126,"count":250,"max":[10.416669845581055],"min":[0.041669998317956924],"bufferView":8,"byteOffset":33680},{"type":"SCALAR","componentType":5126,"count":250,"bufferView":8,"byteOffset":34680}],"bufferViews":[{"buffer":0,"byteOffset":0,"byteLength":292800,"byteStride":32,"target":34962},{"buffer":0,"byteOffset":292800,"byteLength":929280,"byteStride":32,"target":34962},{"buffer":0,"byteOffset":1222080,"byteLength":491520,"byteStride":32,"target":34962},{"buffer":0,"byteOffset":1713600,"byteLength":61632,"byteStride":32,"target":34962},{"buffer":0,"byteOffset":1775232,"byteLength":23112,"byteStride":12,"target":34962},{"buffer":0,"byteOffset":1798344,"byteLength":124928,"byteStride":32,"target":34962},{"buffer":0,"byteOffset":1923272,"byteLength":122880,"byteStride":32,"target":34962},{"buffer":0,"byteOffset":2046152,"byteLength":355728,"target":34963},{"buffer":0,"byteOffset":2401880,"byteLength":35680}],"buffers":[{"uri":"scene.bin","byteLength":2437560}],"materials":[{"name":"Material.010","alphaMode":"BLEND","doubleSided":true,"pbrMetallicRoughness":{"baseColorFactor":[0,0,0,0.2622727365204782],"roughnessFactor":0.6,"metallicFactor":0},"emissiveFactor":[0.6315964807290673,1,1],"extensions":{"KHR_materials_ior":{"ior":1000},"KHR_materials_specular":{}}},{"name":"Material.008","alphaMode":"BLEND","doubleSided":true,"pbrMetallicRoughness":{"baseColorFactor":[1,1,1,0.5107575850053268],"roughnessFactor":0.6,"metallicFactor":0},"emissiveFactor":[0,0.6022702276178409,1],"extensions":{"KHR_materials_ior":{"ior":1000},"KHR_materials_specular":{}}},{"name":"Material.007","alphaMode":"BLEND","pbrMetallicRoughness":{"baseColorFactor":[1,1,1,0.3774242516719934],"roughnessFactor":0.6,"metallicFactor":0},"emissiveFactor":[1,1,1],"extensions":{"KHR_materials_ior":{"ior":1000},"KHR_materials_specular":{}}},{"name":"Material.004","alphaMode":"BLEND","doubleSided":true,"pbrMetallicRoughness":{"baseColorFactor":[1,1,1,0.24409091833866003],"roughnessFactor":0.6,"metallicFactor":0},"emissiveFactor":[0.49173972327825194,1,1],"extensions":{"KHR_materials_ior":{"ior":1000},"KHR_materials_specular":{}}},{"name":"Material.006","alphaMode":"BLEND","doubleSided":true,"pbrMetallicRoughness":{"baseColorFactor":[1,1,1,0.8137878880356297],"roughnessFactor":0.6,"metallicFactor":0},"emissiveFactor":[0.14438921795070875,0.9422065821048152,1],"extensions":{"KHR_materials_ior":{"ior":1000},"KHR_materials_specular":{}}},{"name":"Material.005","alphaMode":"BLEND","doubleSided":true,"pbrMetallicRoughness":{"baseColorFactor":[0,0,0,0.631969706217448],"roughnessFactor":0.6,"metallicFactor":0},"extensions":{"KHR_materials_ior":{"ior":1000},"KHR_materials_specular":{}}}],"meshes":[{"name":"TERRE1_0","primitives":[{"attributes":{"NORMAL":1,"POSITION":0,"TEXCOORD_0":2},"mode":4,"material":5,"indices":19}]},{"name":"Sphere.002_0","primitives":[{"attributes":{"NORMAL":4,"POSITION":3,"TEXCOORD_0":5},"mode":4,"material":4,"indices":20}]},{"name":"Circle.643_0","primitives":[{"attributes":{"NORMAL":7,"POSITION":6,"TEXCOORD_0":8},"mode":4,"material":3,"indices":21}]},{"name":"Circle.455_0","primitives":[{"attributes":{"NORMAL":10,"POSITION":9,"TEXCOORD_0":11},"mode":4,"material":2,"indices":22,"targets":[{"POSITION":12}]}],"weights":[0],"extras":{"targetNames":["0"]}},{"name":"Circle_0","primitives":[{"attributes":{"NORMAL":14,"POSITION":13,"TEXCOORD_0":15},"mode":4,"material":0,"indices":23}]},{"name":"Icosphere.002_0","primitives":[{"attributes":{"NORMAL":17,"POSITION":16,"TEXCOORD_0":18},"mode":4,"material":1,"indices":24}]}],"nodes":[{"name":"Sketchfab_model","rotation":[-0.7071067811865475,0,0,0.7071067811865476],"scale":[0.3062223494052887,0.3062223494052887,0.3062223494052887],"children":[1]},{"name":"Root","children":[2,4,6,8,10]},{"name":"TERRE1","scale":[3.2698299884796143,3.2698299884796143,3.2698299884796143],"children":[3]},{"name":"TERRE1_0","mesh":0},{"name":"Sphere.002","rotation":[0,0,-0.9979832172393799,0.0634801983833313],"scale":[0.9652199745178223,0.9652199745178223,0.9652199745178223],"children":[5]},{"name":"Sphere.002_0","mesh":1},{"name":"Circle.643","scale":[4.786620140075684,4.786620140075684,4.786620140075684],"children":[7]},{"name":"Circle.643_0","mesh":2},{"name":"Circle.455","scale":[0.17636999487876892,0.17636999487876892,0.17636999487876892],"children":[9]},{"name":"Circle.455_0","mesh":3},{"name":"Circle","scale":[6.128389835357666,6.128389835357666,6.128389835357666],"children":[11,12]},{"name":"Circle_0","mesh":4},{"name":"Icosphere.002","translation":[1,0,0],"scale":[0.06312000006437302,0.06312000006437302,0.06312000006437302],"children":[13]},{"name":"Icosphere.002_0","mesh":5}],"animations":[{"name":"Take 01","samplers":[{"input":25,"output":26,"interpolation":"LINEAR"},{"input":27,"output":28,"interpolation":"LINEAR"},{"input":29,"output":30,"interpolation":"LINEAR"},{"input":31,"output":32,"interpolation":"LINEAR"},{"input":33,"output":34,"interpolation":"LINEAR"},{"input":35,"output":36,"interpolation":"LINEAR"},{"input":37,"output":38,"interpolation":"LINEAR"},{"input":39,"output":40,"interpolation":"LINEAR"}],"channels":[{"sampler":0,"target":{"node":10,"path":"rotation"}},{"sampler":1,"target":{"node":12,"path":"rotation"}},{"sampler":2,"target":{"node":8,"path":"rotation"}},{"sampler":3,"target":{"node":8,"path":"scale"}},{"sampler":4,"target":{"node":6,"path":"rotation"}},{"sampler":5,"target":{"node":4,"path":"rotation"}},{"sampler":6,"target":{"node":2,"path":"rotation"}},{"sampler":7,"target":{"node":9,"path":"weights"}}]}],"scenes":[{"name":"Sketchfab_Scene","nodes":[0]}],"scene":0,"extensionsUsed":["KHR_materials_ior","KHR_materials_specular"]}