<svg width="1080" height="1920" viewBox="0 0 1080 1920" fill="none" xmlns="http://www.w3.org/2000/svg">
<g clip-path="url(#clip0_207_2)">
<rect width="1920" height="1080" transform="translate(1080) rotate(90)" fill="black"/>
<g filter="url(#filter0_f_207_2)">
<rect x="686" y="1204" width="281" height="225" transform="rotate(90 686 1204)" fill="#77CACA"/>
</g>
<g filter="url(#filter1_f_207_2)">
<ellipse cx="660.5" cy="1186" rx="104" ry="28.5" transform="rotate(90 660.5 1186)" fill="#77CACA"/>
<ellipse cx="660.5" cy="1186" rx="104" ry="28.5" transform="rotate(90 660.5 1186)" fill="#77CACA"/>
<ellipse cx="660.5" cy="1186" rx="104" ry="28.5" transform="rotate(90 660.5 1186)" fill="#77CACA"/>
</g>
<g filter="url(#filter2_f_207_2)">
<ellipse cx="538.5" cy="998.5" rx="240.5" ry="65.5" transform="rotate(90 538.5 998.5)" fill="#77CACA"/>
<ellipse cx="538.5" cy="998.5" rx="240.5" ry="65.5" transform="rotate(90 538.5 998.5)" fill="#77CACA"/>
<ellipse cx="538.5" cy="998.5" rx="240.5" ry="65.5" transform="rotate(90 538.5 998.5)" fill="#77CACA"/>
</g>
<g filter="url(#filter3_f_207_2)">
<ellipse cx="472.5" cy="965.5" rx="207.5" ry="101.5" transform="rotate(90 472.5 965.5)" fill="#77CACA"/>
</g>
<g filter="url(#filter4_f_207_2)">
<ellipse cx="303" cy="321" rx="133" ry="100" transform="rotate(90 303 321)" fill="#77CACA" fill-opacity="0.19"/>
</g>
<g filter="url(#filter5_f_207_2)">
<ellipse cx="411.5" cy="237.5" rx="216.5" ry="162.5" transform="rotate(90 411.5 237.5)" fill="#77CACA" fill-opacity="0.26"/>
</g>
<g filter="url(#filter6_f_207_2)">
<ellipse cx="723.5" cy="419.5" rx="216.5" ry="162.5" transform="rotate(90 723.5 419.5)" fill="#77CACA" fill-opacity="0.09"/>
</g>
<g filter="url(#filter7_f_207_2)">
<ellipse cx="165.5" cy="823.5" rx="116.5" ry="87.5" transform="rotate(90 165.5 823.5)" fill="#77CACA" fill-opacity="0.19"/>
</g>
<g filter="url(#filter8_f_207_2)">
<ellipse cx="795" cy="-135" rx="217" ry="163" transform="rotate(90 795 -135)" fill="#77CACA" fill-opacity="0.36"/>
</g>
</g>
<defs>
<filter id="filter0_f_207_2" x="-39" y="704" width="1225" height="1281" filterUnits="userSpaceOnUse" color-interpolation-filters="sRGB">
<feFlood flood-opacity="0" result="BackgroundImageFix"/>
<feBlend mode="normal" in="SourceGraphic" in2="BackgroundImageFix" result="shape"/>
<feGaussianBlur stdDeviation="250" result="effect1_foregroundBlur_207_2"/>
</filter>
<filter id="filter1_f_207_2" x="132" y="582" width="1057" height="1208" filterUnits="userSpaceOnUse" color-interpolation-filters="sRGB">
<feFlood flood-opacity="0" result="BackgroundImageFix"/>
<feBlend mode="normal" in="SourceGraphic" in2="BackgroundImageFix" result="shape"/>
<feGaussianBlur stdDeviation="250" result="effect1_foregroundBlur_207_2"/>
</filter>
<filter id="filter2_f_207_2" x="-27" y="258" width="1131" height="1481" filterUnits="userSpaceOnUse" color-interpolation-filters="sRGB">
<feFlood flood-opacity="0" result="BackgroundImageFix"/>
<feBlend mode="normal" in="SourceGraphic" in2="BackgroundImageFix" result="shape"/>
<feGaussianBlur stdDeviation="250" result="effect1_foregroundBlur_207_2"/>
</filter>
<filter id="filter3_f_207_2" x="-129" y="258" width="1203" height="1415" filterUnits="userSpaceOnUse" color-interpolation-filters="sRGB">
<feFlood flood-opacity="0" result="BackgroundImageFix"/>
<feBlend mode="normal" in="SourceGraphic" in2="BackgroundImageFix" result="shape"/>
<feGaussianBlur stdDeviation="250" result="effect1_foregroundBlur_207_2"/>
</filter>
<filter id="filter4_f_207_2" x="-297" y="-312" width="1200" height="1266" filterUnits="userSpaceOnUse" color-interpolation-filters="sRGB">
<feFlood flood-opacity="0" result="BackgroundImageFix"/>
<feBlend mode="normal" in="SourceGraphic" in2="BackgroundImageFix" result="shape"/>
<feGaussianBlur stdDeviation="250" result="effect1_foregroundBlur_207_2"/>
</filter>
<filter id="filter5_f_207_2" x="-251" y="-479" width="1325" height="1433" filterUnits="userSpaceOnUse" color-interpolation-filters="sRGB">
<feFlood flood-opacity="0" result="BackgroundImageFix"/>
<feBlend mode="normal" in="SourceGraphic" in2="BackgroundImageFix" result="shape"/>
<feGaussianBlur stdDeviation="250" result="effect1_foregroundBlur_207_2"/>
</filter>
<filter id="filter6_f_207_2" x="61" y="-297" width="1325" height="1433" filterUnits="userSpaceOnUse" color-interpolation-filters="sRGB">
<feFlood flood-opacity="0" result="BackgroundImageFix"/>
<feBlend mode="normal" in="SourceGraphic" in2="BackgroundImageFix" result="shape"/>
<feGaussianBlur stdDeviation="250" result="effect1_foregroundBlur_207_2"/>
</filter>
<filter id="filter7_f_207_2" x="-422" y="207" width="1175" height="1233" filterUnits="userSpaceOnUse" color-interpolation-filters="sRGB">
<feFlood flood-opacity="0" result="BackgroundImageFix"/>
<feBlend mode="normal" in="SourceGraphic" in2="BackgroundImageFix" result="shape"/>
<feGaussianBlur stdDeviation="250" result="effect1_foregroundBlur_207_2"/>
</filter>
<filter id="filter8_f_207_2" x="132" y="-852" width="1326" height="1434" filterUnits="userSpaceOnUse" color-interpolation-filters="sRGB">
<feFlood flood-opacity="0" result="BackgroundImageFix"/>
<feBlend mode="normal" in="SourceGraphic" in2="BackgroundImageFix" result="shape"/>
<feGaussianBlur stdDeviation="250" result="effect1_foregroundBlur_207_2"/>
</filter>
<clipPath id="clip0_207_2">
<rect width="1920" height="1080" fill="white" transform="translate(1080) rotate(90)"/>
</clipPath>
</defs>
</svg>
