<svg xmlns="http://www.w3.org/2000/svg" viewBox="0 0 68.43 83.41"><defs><style>.cls-1{fill:#78c7c7;}</style></defs><g id="Layer_2" data-name="Layer 2"><g id="Layer_1-2" data-name="Layer 1"><circle class="cls-1" cx="25.75" cy="66.36" r="4.63"/><polygon class="cls-1" points="48.62 51.01 28.8 41.1 28.8 18.74 48.62 28.12 48.62 51.01"/><polygon class="cls-1" points="48.62 51.01 68.43 41.1 68.43 18.74 48.62 28.12 48.62 51.01"/><polygon class="cls-1" points="68.43 18.74 48.61 28.11 28.8 18.74 48.61 10.53 68.43 18.74"/><path class="cls-1" d="M6,6V77.41H45.27V55.14h6V78.41a5,5,0,0,1-5,5H5a5,5,0,0,1-5-5V5A5,5,0,0,1,5,0H46.27a5,5,0,0,1,5,5V6Z"/></g></g></svg>