<svg width="448" height="449" viewBox="0 0 448 449" fill="none" xmlns="http://www.w3.org/2000/svg">
<path d="M224.101 110C160.501 110 109.201 161.3 109.201 224.9C109.201 288.5 160.501 339.8 224.101 339.8C287.701 339.8 339.001 288.5 339.001 224.9C339.001 161.3 287.701 110 224.101 110ZM224.101 299.6C183.001 299.6 149.401 266.1 149.401 224.9C149.401 183.7 182.901 150.2 224.101 150.2C265.301 150.2 298.801 183.7 298.801 224.9C298.801 266.1 265.201 299.6 224.101 299.6ZM370.501 105.3C370.501 120.2 358.501 132.1 343.701 132.1C328.801 132.1 316.901 120.1 316.901 105.3C316.901 90.5002 328.901 78.5002 343.701 78.5002C358.501 78.5002 370.501 90.5002 370.501 105.3ZM446.601 132.5C444.901 96.6002 436.701 64.8002 410.401 38.6002C384.201 12.4002 352.401 4.2002 316.501 2.4002C279.501 0.300195 168.601 0.300195 131.601 2.4002C95.8008 4.1002 64.0008 12.3002 37.7008 38.5002C11.4008 64.7002 3.30078 96.5002 1.50078 132.4C-0.599219 169.4 -0.599219 280.3 1.50078 317.3C3.20078 353.2 11.4008 385 37.7008 411.2C64.0008 437.4 95.7008 445.6 131.601 447.4C168.601 449.5 279.501 449.5 316.501 447.4C352.401 445.7 384.201 437.5 410.401 411.2C436.601 385 444.801 353.2 446.601 317.3C448.701 280.3 448.701 169.5 446.601 132.5ZM398.801 357C391.001 376.6 375.901 391.7 356.201 399.6C326.701 411.3 256.701 408.6 224.101 408.6C191.501 408.6 121.401 411.2 92.0008 399.6C72.4008 391.8 57.3008 376.7 49.4008 357C37.7008 327.5 40.4008 257.5 40.4008 224.9C40.4008 192.3 37.8008 122.2 49.4008 92.8002C57.2008 73.2002 72.3008 58.1002 92.0008 50.2002C121.501 38.5002 191.501 41.2002 224.101 41.2002C256.701 41.2002 326.801 38.6002 356.201 50.2002C375.801 58.0002 390.901 73.1002 398.801 92.8002C410.501 122.3 407.801 192.3 407.801 224.9C407.801 257.5 410.501 327.6 398.801 357Z" fill="#79CCCB"/>
</svg>
