<svg xmlns="http://www.w3.org/2000/svg" viewBox="0 0 32.34 38.97"><defs><style>.cls-1{fill:#79cccb;}</style></defs><g id="Layer_2" data-name="Layer 2"><g id="Layer_1-2" data-name="Layer 1"><path class="cls-1" d="M16.17,39a1.24,1.24,0,0,1-.69-.21C14.85,38.34,0,28.3,0,16.17a16.17,16.17,0,0,1,32.34,0c0,12.13-14.85,22.17-15.48,22.59A1.24,1.24,0,0,1,16.17,39Zm0-36.48A13.69,13.69,0,0,0,2.49,16.17c0,9.41,10.81,17.93,13.68,20,2.87-2.1,13.68-10.62,13.68-20A13.69,13.69,0,0,0,16.17,2.49Z"/><path class="cls-1" d="M16.17,21.14a6.22,6.22,0,1,1,6.22-6.22A6.23,6.23,0,0,1,16.17,21.14Zm0-10a3.73,3.73,0,1,0,3.73,3.73A3.74,3.74,0,0,0,16.17,11.19Z"/></g></g></svg>