<svg xmlns="http://www.w3.org/2000/svg" viewBox="0 0 35.65 29.02"><defs><style>.cls-1{fill:#79cccb;}</style></defs><g id="Layer_2" data-name="Layer 2"><g id="Layer_1-2" data-name="Layer 1"><path class="cls-1" d="M31.09,29H4.56A4.57,4.57,0,0,1,0,24.46V4.56A4.57,4.57,0,0,1,4.56,0H31.09a4.56,4.56,0,0,1,4.56,4.56v19.9A4.56,4.56,0,0,1,31.09,29ZM4.56,2.49A2.07,2.07,0,0,0,2.49,4.56v19.9a2.07,2.07,0,0,0,2.07,2.07H31.09a2.08,2.08,0,0,0,2.08-2.07V4.56a2.08,2.08,0,0,0-2.08-2.07Z"/><path class="cls-1" d="M17.83,17.41a1.27,1.27,0,0,1-.72-.22L.53,5.58A1.25,1.25,0,0,1,2,3.54L17.83,14.65,33.7,3.54a1.24,1.24,0,1,1,1.42,2L18.54,17.19A1.22,1.22,0,0,1,17.83,17.41Z"/></g></g></svg>